<?xml version="1.0" encoding="UTF-8"?>
<!-- Generator: Adobe Illustrator 21.1.0, SVG Export Plug-In . SVG Version: 6.00 Build 0)  -->
<svg version="1.1" id="Layer_1" xmlns="http://www.w3.org/2000/svg" xmlns:xlink="http://www.w3.org/1999/xlink" x="0px" y="0px" viewBox="0 0 571.5 463.5" style="enable-background:new 0 0 571.5 463.5;" xml:space="preserve">
<style type="text/css">
	.st0{fill:#0087A8;}
	.st1{fill-rule:evenodd;clip-rule:evenodd;fill:#0087A8;}
</style>
<g>
	<path class="st0" d="M332.8,373.8c-0.1-0.9-0.1-1-0.3-1c-0.1,0-0.1,0-0.2,0.1c-0.1,0.1-0.1,0.2-0.1,0.3c-0.5,1.9-1.3,2.8-1.4,2.8   c0,0,0,0,0,0c-1.6,2-4,3.2-6.6,3.2h-81c-3.2,0-6.1-1.8-7.5-4.6c-0.1-0.3-0.5-1.1-0.5-1.5c0-0.1,0-0.3-0.3-0.3c-0.2,0-0.3,0.2-0.4,1   c0,0.5-0.1,1-0.1,1.3c0,4.6,3.9,8.4,8.7,8.4h81c4.8,0,8.7-3.8,8.7-8.4C332.9,374.8,332.9,374.2,332.8,373.8"/>
	<path class="st0" d="M260.1,327.3c0.1-0.2,0.3-0.4,0.4-0.7c0-0.1,0.1-0.1,0.1-0.2c0.1-0.2,0.3-0.4,0.4-0.6c0.2,0,0.5,0,0.7-0.1   c0.1,0,0.1-0.1,0.1-0.2c0-0.1-0.1-0.1-0.2-0.1c-0.2,0-0.3-0.1-0.5-0.1c-0.2-0.1-0.3-0.1-0.5-0.2l-0.6-0.3c-0.2-0.1-0.4-0.1-0.6-0.2   c-0.4-0.1-0.8-0.2-1.3-0.2c-0.5,0-0.9,0-1.3,0.1c-0.5,0.1-0.9,0.3-1.2,0.6c-0.3,0.3-0.6,0.6-0.9,1c-0.4,0.7-0.7,1.4-0.8,2.3   c0,0.1,0,0.2,0.1,0.2c0,0,0,0,0.1,0c0.1,0,0.1,0,0.2-0.1c0.1-0.2,0.2-0.3,0.3-0.5c0.5,0.4,1,0.6,1.6,0.8c0.3,0.1,0.6,0.1,0.9,0.1   c0.4,0,0.9-0.1,1.3-0.2c0.3-0.1,0.7-0.3,1-0.5C259.6,327.9,259.9,327.6,260.1,327.3 M258.1,327.9c-0.5,0.2-1.1,0.3-1.8,0.2   c-0.5-0.1-1-0.2-1.5-0.5c0.2-0.3,0.3-0.5,0.5-0.8c0.3,0.8,1.1,1.2,1.9,0.9c0.8-0.2,1.3-1.1,1-1.9c-0.1-0.2-0.1-0.3-0.3-0.5   c0.4,0,0.8,0,1.3,0.1c0.3,0,0.5,0.1,0.8,0.2l0.3,0.1c0,0,0,0,0.1,0c-0.1,0.1-0.2,0.3-0.3,0.4c-0.1,0.1-0.2,0.2-0.3,0.4   c-0.1,0.2-0.2,0.3-0.3,0.4C259.1,327.4,258.6,327.7,258.1,327.9"/>
	<path class="st0" d="M304.1,349.3c0-0.8,0.5-1.6,1.2-2.1c-0.4-0.3-0.8-0.5-1.2-0.8c-0.6,0.3-1,0.8-1,1.4   C303.2,348.5,303.5,349,304.1,349.3"/>
	<path class="st0" d="M305.9,350.8c0.1-0.7,0.6-1.4,1.3-1.7c-0.3-0.3-0.7-0.7-1-1c-0.1-0.1-0.1-0.1-0.2-0.2   c-0.6,0.2-1.1,0.8-1.1,1.5C304.9,350,305.3,350.6,305.9,350.8"/>
	<path class="st0" d="M307.5,352.5c0.1-0.8,0.6-1.4,1.3-1.8c-0.3-0.3-0.6-0.7-0.9-1c-0.7,0.2-1.1,0.8-1.1,1.5   C306.8,351.7,307,352.2,307.5,352.5"/>
	<path class="st0" d="M309.3,354.3c0-0.8,0.5-1.5,1.2-1.9c-0.3-0.3-0.7-0.7-1-1c-0.7,0.2-1.1,0.8-1.1,1.5   C308.3,353.4,308.7,354,309.3,354.3"/>
	<path class="st0" d="M311.1,355.8c0-0.8,0.5-1.5,1.1-1.9c-0.2-0.2-0.3-0.3-0.5-0.5c-0.2-0.2-0.4-0.3-0.6-0.5c-0.6,0.3-1,0.8-1,1.4   C310.1,355,310.5,355.6,311.1,355.8"/>
	<path class="st0" d="M313.2,357.5c0-0.2-0.1-0.4-0.1-0.5c0-0.7,0.3-1.3,0.8-1.7c-0.3-0.2-0.7-0.5-1-0.7c-0.6,0.3-1,0.8-1,1.4   C311.9,356.7,312.5,357.3,313.2,357.5"/>
	<path class="st0" d="M315.4,358.5c-0.1-0.1,0-0.2-0.1-0.4c0,0,0,0,0-0.1c0-0.1-0.1-0.3-0.1-0.4c0-0.5,0.2-1,0.5-1.5   c-0.4-0.2-0.7-0.3-1-0.5c-0.4,0.3-0.7,0.8-0.7,1.3C314,357.7,314.6,358.4,315.4,358.5"/>
	<path class="st0" d="M317.7,359.3c0.1,0,0.2,0,0.3,0c-0.3-0.4-0.4-0.8-0.4-1.3c0-0.3,0.1-0.6,0.2-0.9c-0.4-0.1-0.8-0.3-1.2-0.4   c-0.3,0.3-0.5,0.7-0.5,1.1C316.1,358.5,316.8,359.3,317.7,359.3"/>
	<path class="st0" d="M320.1,359.5c0.1,0,0.1,0,0.2,0c-0.4-0.4-0.6-1-0.6-1.6c0-0.2,0-0.4,0.1-0.6c-0.3,0-0.7-0.1-1.1-0.2   c-0.1,0.2-0.2,0.5-0.2,0.7C318.4,358.8,319.2,359.5,320.1,359.5"/>
	<path class="st0" d="M322.1,359.5c0.4,0,0.7-0.1,1-0.4c-0.8-0.3-1.3-1-1.4-1.8c-0.4,0.1-0.8,0.1-1.2,0.1c-0.1,0.2-0.1,0.3-0.1,0.5   C320.5,358.8,321.2,359.5,322.1,359.5"/>
	<path class="st0" d="M324.1,358.5c0.8,0,1.5-0.7,1.5-1.6c0-0.3-0.1-0.5-0.2-0.7c-0.9,0.5-1.8,0.8-2.8,1   C322.7,358,323.3,358.5,324.1,358.5"/>
	<path class="st0" d="M242.5,377c0.8,0.2,1.6,0.4,2.3,0.4c0.1,0,0.3,0,0.4,0c1.6,0,2.7-0.3,3.5-0.5c0.4-0.1,0.7-0.2,0.9-0.2   c0.7-0.1,1.8-0.1,3.1,0c0.4,0.1,0.9,0.1,1.5,0.2h0c2.9,0.3,6.8,0.6,9.2,0.6c0.3,0,0.5,0,0.7,0h0h0.2h0.1c2.9,0,4.8-1.3,5-1.4l0,0   h0.1l0,0c0.8,0.7,4.4,1.2,6.1,1.3c1,0,2,0.1,3.1,0.1c4.9,0,10.2-0.5,13.1-0.9h0h0c4.9,1,13.6,1.1,18.4,1.1c5.3,0,9.5-0.2,10.2-0.2   c0.1,0,0.2,0,0.4,0c1.5-0.2,5.1-0.5,6.5-3.6c0.6-1.2,0.5-2.5-0.2-3.8v0c0,0,0-0.1-0.1-0.2l0,0l0,0c2.5-2.7,2.9-7.7,1.9-11.1   c-0.6-2.3-1.8-4-2.1-4.3l0,0c-0.2-0.5-1.3-3.3-2.7-5.6c-1.8-3.3-5.4-5.5-10.3-6.6c-2.1-0.4-4.3-0.7-6.5-0.7c-1.3,0-2.6,0.1-3.8,0.2   c-0.2,0-0.6,0.1-1.2,0.2c-2.3,0.4-6.7,1.1-8.3,1.2c-0.4,0-0.7-0.2-1-0.5c-0.6-0.8-0.4-2.4-0.3-2.9c0-0.1,0-0.1,0-0.1   c0.4-2.1-0.2-3.8-1.7-5c-0.7-0.5-1.6-0.8-2.7-0.8c-1,0-2,0.2-3,0.4c-0.3,0.1-0.6,0.1-0.8,0.2c-0.9,0.2-1.8,0.4-2.8,0.4   c-0.5,0-1-0.1-1.5-0.2c-0.2,0-0.3-0.1-0.6-0.2l0,0c-2.2-1.2-6.2-5.3-6.6-5.7l0-0.1l0,0c0.3-0.5,0.4-0.8,0.6-1.3l0,0   c0.1-0.3,0.2-0.6,0.4-1.1c0.2-0.4,0.8-1.3,1-1.7c0.1-0.1,0.1-0.3,0.1-0.4c0-0.1-0.1-0.3-0.3-0.3c-1.1-0.6-2.3-0.7-3.1-0.7l-0.2,0   l0.1-0.1c1.3-1.9,2.5-4.9,2.5-5c0.1-0.2,0-0.3-0.1-0.5c-0.1-0.1-0.3-0.2-0.4-0.2c-5.6,0.2-7.9,1.4-8.8,2.1l-0.1,0l-0.1,0   c-0.5-0.4-1.2-0.8-2.3-0.8c-0.4,0-0.7,0-1.1,0.1c-1.5,0.4-2.2,1.5-2.5,2.1l0,0l-0.1,0c-0.7,0.1-2.7,0.7-4.7,3.3   c-2.7,3.5-5.6,5.2-7,6.1c-0.3,0.2-0.5,0.3-0.6,0.4c-1.7,1.3-3.2,3.1-1.2,6.8c1.5,2.7,5,3.6,7.7,3.6c0.8,0,1.5-0.1,2.2-0.2l0.1,0   l0,0.1c0.3,0.4,1.1,1.6,0.6,3c-0.2,0.5-0.5,1-0.7,1.5c-0.1,0.1-0.2,0.3-0.2,0.4c-0.7,1.2-1.3,2.2-0.6,4.1l0,0.1l-0.1,0   c-0.7,0.4-1.9,1.4-2.1,2.7c-0.1,0.7-0.1,1.3,0.1,2l0,0.1h0c0,0.1,0,0.2,0,0.3c-0.1,0.2-0.4,0.2-0.8,0.1l-0.3-0.1   c-0.1,0-0.3-0.1-0.4-0.1c-0.7-0.2-1.5-0.4-2.3-0.4c-0.6,0-1.1,0.1-1.6,0.3c-1.6,0.6-3.8,2.3-5.6,7c-0.5,1.3-0.9,2.4-0.4,3.4   c0.2,0.3,0.2,0.9-0.9,1.5c-0.5,0.3-0.9,0.9-0.9,1.5c0,0.4,0.1,0.8,0.3,1.1l0,0.1c0,0,0,0,0,0c0.1,0.2,0.2,0.4,0,0.8   c-0.2,0.3-0.5,0.8-0.7,1.2c-0.4,1-0.4,1.2-0.5,1.7l0,0.1C238.3,374.3,239.8,376.2,242.5,377 M252.1,374.5c-2,0.3-3.2-0.5-3-1.7   c0.2-1.3,0.4-2.6,0.5-3.1c0.1-0.5,0.2-1.1,0.9-1.5c0.6-0.4,1.8-0.4,3,0.5c1,0.7,1.8,1.7,2.4,2.4l0,0   C257.5,373.6,254.4,374.1,252.1,374.5 M293.9,366.6c-0.1,0.5-0.4,1.7-2.1,1.6c-1.7-0.1-1.8-1.6-1.8-2c0.1-0.4,0.1-0.8,0.3-1.9   c0.2-1.1,1.1-1.4,2-1.4c1.3,0,1.8,1.1,1.8,1.6C294.2,365,294,366.1,293.9,366.6 M298.5,374.8c-1.9-0.1-2.6-0.6-2.4-1.8   c0.2-1.7,2.7-0.4,2.9-1c0.1-0.4-1-0.5-1.9-0.8c-0.9-0.4-0.8-1.7,1-2.4c1.8-0.7,3.3,0,4.1,0.6c0.8,0.5,0,0.7,0,0.7   c-3.2,1.1-3.4,3.9-3.4,4.7C298.7,374.8,298.6,374.8,298.5,374.8 M306.6,375.8c-0.1,0.1-0.3,0.1-0.3,0.1c-1.4,0.2-2.5,0-3-0.1   c-0.2,0-0.3-0.1-0.3-0.3c-0.1-1,0.5-2.2,0.7-2.5c0.4-0.6-0.4-1.2-0.9-0.4c-0.8,1-1,2.3-1,2.8c0,0.1-0.1,0.2-0.3,0.2   c-0.8-0.1-1.3-0.4-1.6-0.7c-0.1-0.1-0.2-0.2-0.1-0.4c0.2-2.6,2.3-3.5,3-3.7c0.2,0,0.3,0,0.4,0.1c0.8,1,3,1.2,4.2,1.3   c0.3,0,0.8,0.2,0.7,0.5C307.8,374.9,307,375.6,306.6,375.8 M308.7,371.4c-0.1-0.1-0.8-0.4-1.9-0.5c-2.6-0.2-2.9-1.7-2.9-2.4   c0-1.1,0.8-1.9,1.4-2.2c0,0,0.2,0.7,0.8,1.2c-0.2,0.1-0.7,0.5-0.7,1c0,0.3,0,0.9,1.5,1c0.5,0,2.3,0.2,3,1   C309,370.7,308.7,371.4,308.7,371.4 M313.2,374.9c-1.2,0.1-4,0.2-3.8-2.4c0.1-0.9,0.8-1.4,1.9-1.5c1.5-0.1,2.9,0.4,2.9,0.4   c1.6,0.6,3.2,1.7,4.4,3.5C318.6,374.9,314.4,374.8,313.2,374.9 M308.3,342.5c0.6,0,1.3,0.1,1.9,0.1c0,0,0,0,0,0   c3.9,0.3,8.4,1.4,11.3,4.3c0.4,0.4,0.7,0.8,1,1.2c0.2,0.3,1,1.5,1.1,1.8c0.3,0.5,0.5,0.9,0.7,1.4c-0.1,0.1-0.1,0.1-0.2,0.2   c-0.4,0.3-1.9,1.3-3.7,1.3c-0.1,0-2.6,0-5.5-2.7l-0.1-0.1c-1.3-1.1-2.5-2.4-3.6-3.6c-0.6-0.7-1.2-1.3-1.7-1.8c-1-0.9-2-1.7-3.1-2.2   C307.1,342.5,307.7,342.5,308.3,342.5 M301.7,343.2c0.9-0.2,1.6-0.3,2.3-0.4c1.5,0.6,3.2,1.6,4.6,3c0.5,0.5,1,1,1.6,1.7   c1,1.1,2.3,2.5,3.7,3.7c3.3,3,6.2,3.1,6.6,3.1c2.2,0,3.9-1.1,4.5-1.6c0.2,0.3,0.3,0.7,0.5,1.1c-0.9,0.6-2.7,1.7-5,1.7   c-0.6,0-3.8-0.2-7.4-3.4c-1.4-1.2-2.7-2.6-3.8-3.7c-0.6-0.7-1.2-1.2-1.6-1.6C305.8,344.6,303.4,343.7,301.7,343.2L301.7,343.2z    M296.3,344.5c0.1,0,0.1-0.1,0.2-0.1c0.3-0.1,0.6-0.1,1-0.3c0.9-0.2,1.7-0.1,2.5,0.1c0.6,0.1,1.2,0.3,1.7,0.4   c1.4,0.5,3.4,1.3,5,2.9c0.4,0.4,0.9,0.9,1.5,1.6c1.1,1.1,2.4,2.6,3.9,3.9c3,2.8,6.3,3.8,8.3,3.8c2.5,0,4.5-1,5.6-1.8   c0.4,0.6,1.3,2.2,1.8,3.9c0.9,3.1,0.5,7.5-1.5,9.8c-1.5,1.6-3,1.4-3.5,1.2c0,0,0,0,0,0c0,0,0,0,0,0c0,0,0,0,0,0   c-0.1-0.1-0.2-0.2-0.1-0.2c0,0,0.1,0,0.1-0.1c0,0,0,0,0,0c0.8-0.4,1.4-1,1.9-1.5c0.1-0.1,0.2-0.2,0.2-0.3c2.1-2.5,1.6-5.6,1.4-6.5   c-0.1-0.3-0.4-0.5-0.7-0.4c-0.3,0.1-0.5,0.4-0.5,0.7c0.2,0.8,0.6,3.4-1.1,5.5c-1.7,2-4.9,3.1-9.6,3.1c0,0-0.1,0-0.1,0   c-0.2,0-0.5,0-0.7-0.1c-3.9-0.3-5.9-2.2-6.8-3.3c-1-1.4-1.5-3-1.1-4.4c0.7-3,3.9-4.3,4-4.3c0.3-0.1,0.5-0.5,0.3-0.8   c-0.1-0.3-0.5-0.4-0.8-0.3c-0.1,0-0.7,0.3-1.5,0.8c-1.4,0.8-3,2.2-3.8,4.6c-0.8,2.4-1.4,4.9-4.8,4.3c-1.6-0.4-3.7-1.3-3.7-3.7   c0.7-6.1-1.3-14.3-1.3-14.7c0,0,0,0,0,0C293.7,346.3,294.8,345.1,296.3,344.5 M294.2,357.2c0.1,0.8,0.2,2.1,0.2,2.7   c0,0.6-0.2,1.8-2,1.8c-1.6,0-1.8-1.1-1.8-1.8c0-0.6-0.1-1-0.1-2.2c0-1.2,0.9-1.9,1.9-1.9C293.2,355.9,294.1,356.2,294.2,357.2    M292.9,349.7c0.4,0.9,0.7,2.3,0.7,3.1c0,0.9,0,1.5-1.5,1.9c-1.5,0.3-2.1-0.7-2.3-1.2c-0.2-0.6-0.5-1.3-0.6-1.7   c-0.7-1.5,0.1-2.5,1-2.9C291,348.6,292.4,348.4,292.9,349.7 M280.1,335.5c0.2,0.1,0.5,0.1,0.7,0.2c0.5,0.7,0.3,1.6-0.2,2.1   c-0.8,0.7-1.9,0.7-2.5,0.2c0,0,0,0,0,0c0.4,0.7,0.2,1.5-0.5,2c-0.7,0.5-1.6,0.4-2.1-0.1c0,0,0,0-0.1,0c0.3,0.7,0,1.5-0.7,1.9   c-0.7,0.4-1.5,0.2-2.1-0.3c0,0,0,0-0.1,0c0.2,0.7-0.1,1.4-0.8,1.7c-0.8,0.3-1.6,0.2-2-0.3c0,0,0,0-0.1,0c0,0.4-0.1,1.2-1,1.5   c-0.8,0.3-1.7,0.1-2-0.3c0,0,0,0,0,0c-0.1,0.5-0.5,1.1-1.3,1.3c-0.9,0.2-1.6-0.1-1.8-0.3c-0.3,0.1-0.6,0.2-0.9,0.3c0,0,0,0,0,0   c0,0-0.1,0.2,0,0.4l0,0c0.4,0,0.8,0.4,0.8,0.8c0,0.4-0.4,0.8-0.8,0.8c-0.4,0-0.8-0.3-0.8-0.8c0-0.3,0.2-0.5,0.4-0.6   c-0.1-0.2-0.1-0.3-0.1-0.4c-0.5,0.1-1.1,0.3-1.7,0.4c0,0,0,0,0,0.1c0,0-0.1,0.2,0,0.4c0,0,0,0,0,0c0,0,0,0,0,0   c0.5,0,0.9,0.4,0.9,0.9s-0.4,0.9-0.9,0.9c-0.5,0-0.9-0.4-0.9-0.9c0-0.3,0.2-0.6,0.5-0.8c-0.1-0.2-0.1-0.4,0-0.5   c-0.6,0.1-1.3,0.3-2,0.3c0,0-0.1,0.2,0,0.4c0,0,0,0,0,0c0.6,0,1,0.5,1,1c0,0.6-0.5,1-1.1,1c-0.2,0-0.3,0-0.4-0.1   c-0.4-0.1-0.6-0.5-0.6-0.9c0-0.1,0-0.1,0-0.2c0,0,0,0,0,0c0,0,0-0.1,0.1-0.2c0,0,0,0,0,0c0,0,0.1-0.1,0.1-0.1c0,0,0,0,0.1-0.1   c0,0,0,0,0.1-0.1c0,0,0.1-0.1,0.1-0.1c0,0,0,0,0,0c0.1-0.1,0.2-0.1,0.2-0.2c-0.1-0.2-0.1-0.3,0-0.4c0,0-0.1,0-0.1,0   c0,0-0.5,0.1-0.6-0.4c0-0.3,0.2-0.4,0.5-0.5c1.3-0.2,3.7-0.6,6.8-1.5c1.9-0.6,4.1-1.4,6.5-2.7c2.6-1.3,5.3-3,7.9-5.1   c0.4-0.4,0.9-0.8,1.3-1.1C279.7,335.3,280,335.5,280.1,335.5 M278.6,334.7c-6.8,6-14.2,8.4-18.5,9.4c-0.3,0-0.7,0-0.8-0.5   c-0.1-0.5,0.2-0.7,0.4-0.8c0.9-0.2,2-0.6,3.4-1.2c0.3-0.1,0.4-0.5,0.3-0.8c-0.2-0.3-0.5-0.4-0.8-0.3c-0.6,0.3-1.1,0.5-1.6,0.7   c-1.4,0.4-2.7,0-2.7-1c0-0.8,2-0.9,2.8-1.1c0.2,0,0.3,0,0.5-0.1c2.4-0.4,5-0.9,6.3-2.8c1.5-2.1,0.2-4.9,0.2-4.9   c2.2,0.2,3.9-1.1,4.7-1.9C273.7,330.5,276.5,333.3,278.6,334.7 M273.1,318.1c-0.3,0.5-0.7,1.4-1.7,2.8c-1.9,2.6-5.3,3.7-6.5,2.2   C262,319.1,273.1,318.1,273.1,318.1 M255.5,338.6c-1.1,0.1-1.4-0.5-1.4-0.5c-0.5-0.6-0.1-1.1,0.2-1.3c0.3-0.2,1.1-0.8,0.6-1.4   c-0.9-1-1.7,0.2-1.9,0.6c-0.2,0.4-0.3,1.4-1.7,2.1c-0.9,0.4-2.3,0.7-3.2,0c-0.5-0.4-1-0.9-1.3-1.5c-0.6-0.9-0.8-1.7-0.8-2.4   c0-0.9,0.3-1.9,1.4-2.3c1.2-0.5,1.4-0.1,1.8-0.4c0.2-0.1,0.2-0.4,0.3-0.6c0.2-1,2.4-1.9,3.6-3.4c0.9-0.9,1.7-1.9,2.5-2.9   c1.8-2.4,3.4-2.8,4-2.9v0c0,0,2-0.3,2.9,0.7c0.9,1,1.1,2.7,0.5,3.9c-0.6,1.2-0.2,1.5,0,1.6c0.2,0.2,1.1,0.9,2.3-0.7   c0,0,2.1-2.7,5.4-3.3c0.3,0,1.8-0.3,3.4,0.3c-0.3,0.4-0.6,1-0.7,1.3c-0.2,0.5-0.4,0.8-0.5,1.1c-0.2,0.5-0.3,0.9-0.7,1.5   c-0.2,0.2-1.5,1.9-3.5,2c-1-0.1-0.6-1.4-0.3-2c0.3-0.6,2.4-2,2.7-2.3c0.3-0.2,0.2-0.6-0.4-0.2c-0.6,0.3-1.3-0.2-2.2,0.4   c-0.9,0.6-0.5,1.5-0.5,1.5s-1,0.7-1.8,1.2c-0.8,0.5-0.1,1.5,0.2,2c0.3,0.4,1.7,2.8,0.5,4.7c-1,1.6-3.3,1.9-5.5,2.3   c-0.8,0.1-2-0.1-2.7,0.1C257.5,338.1,256.5,338.5,255.5,338.6 M256.1,350.2c1.4-0.1,5.4-0.5,10.3-2.1c5-1.6,11.8-4.2,17-10.4v0   c0,0,0,0,0-0.1c0.1-0.1,0.1-0.1,0.2-0.2c0.5-0.6,1.9-2.2,4-2.6c1-0.1,2.2-0.1,3,0.5c1.2,1,1.7,2.5,1.1,4.6   c-0.3,1.1-1.9,2.2-3.3,2.3c-1.6,0-2.3-1-2.3-1c-0.2-0.3-0.5-0.4-0.8-0.2c-0.2,0.1-0.3,0.4-0.3,0.6l0,0c0,0,0.5,1.5,2.3,1.9   c1.5,0.2,1.3,1.1,0.9,1.3c-10.2,4.6-18.6,6.4-24.1,7.2c-3.4,0.4-6.1,0.5-7.9,0.5c-0.5-0.1-1-0.5-1.1-1.1   C254.9,350.7,255.6,350.3,256.1,350.2 M284.8,347.3c0.1-0.1,0.2-0.2,0.4-0.1c0.1,0.1,0.2,0.2,0.1,0.3c0,0-0.1,0.2,0,0.5   c0,0,0,0,0,0c0.7,0,1.3,0.6,1.3,1.2c0,0.7-0.6,1.3-1.3,1.3c-0.7,0-1.3-0.6-1.3-1.3c0-0.5,0.3-0.9,0.8-1.1   C284.6,347.7,284.8,347.3,284.8,347.3 M281.5,348.3c0.1-0.1,0.2-0.2,0.4-0.1c0.1,0.1,0.2,0.2,0.1,0.4c0,0-0.1,0.3,0,0.5l0,0   c0.7,0,1.3,0.6,1.3,1.2c0,0.7-0.6,1.2-1.3,1.2c-0.7,0-1.3-0.6-1.3-1.2c0-0.5,0.3-1,0.8-1.1C281.3,348.7,281.5,348.4,281.5,348.3    M278.4,349.2c0.1-0.1,0.2-0.2,0.4-0.1c0.1,0.1,0.2,0.2,0.1,0.4c0,0-0.1,0.3,0,0.5c0,0,0,0,0,0c0.7,0,1.3,0.6,1.3,1.2   c0,0.7-0.6,1.2-1.3,1.2s-1.3-0.6-1.3-1.2c0-0.5,0.3-0.9,0.8-1.1C278.2,349.7,278.4,349.3,278.4,349.2 M275.4,350.2   c0.1-0.1,0.2-0.2,0.4-0.1c0.1,0.1,0.2,0.2,0.1,0.3c0,0-0.1,0.2,0,0.5c0,0,0,0,0,0c0.7,0,1.3,0.6,1.3,1.2c0,0.7-0.6,1.2-1.3,1.2   c-0.7,0-1.3-0.6-1.3-1.2c0-0.5,0.3-1,0.8-1.1C275.2,350.6,275.4,350.3,275.4,350.2 M272.3,351.2c0.1-0.1,0.2-0.2,0.4-0.1   c0.1,0.1,0.2,0.2,0.1,0.3c0,0-0.1,0.3,0,0.5c0,0,0,0,0,0c0.7,0,1.3,0.6,1.3,1.3c0,0.7-0.6,1.3-1.3,1.3c-0.7,0-1.3-0.6-1.3-1.3   c0-0.5,0.3-1,0.8-1.1C272.1,351.6,272.2,351.3,272.3,351.2 M268.9,351.8c0.1-0.1,0.2-0.2,0.4-0.1c0.1,0.1,0.2,0.2,0.1,0.4   c0,0-0.1,0.3,0,0.5c0,0,0,0,0,0c0.7,0,1.3,0.6,1.3,1.2c0,0.7-0.6,1.2-1.3,1.2c-0.7,0-1.3-0.6-1.3-1.2c0-0.5,0.3-0.9,0.8-1.1   C268.8,352.2,268.9,351.8,268.9,351.8 M265.7,352.4c0.1-0.1,0.2-0.2,0.4-0.1c0.1,0.1,0.2,0.2,0.1,0.4c0,0-0.1,0.3,0,0.5   c0,0,0,0,0,0c0.7,0,1.3,0.6,1.3,1.2s-0.6,1.2-1.3,1.2c-0.7,0-1.3-0.6-1.3-1.2c0-0.5,0.3-0.9,0.8-1.1   C265.5,352.8,265.7,352.5,265.7,352.4 M262.8,352.9c0.1-0.1,0.2-0.2,0.4-0.1c0.1,0.1,0.2,0.2,0.1,0.3c0,0-0.1,0.2,0,0.5   c0,0,0,0,0,0c0.7,0,1.2,0.6,1.2,1.2c0,0.7-0.6,1.2-1.3,1.2c-0.7,0-1.3-0.6-1.3-1.2c0-0.5,0.3-1,0.8-1.2   C262.6,353.4,262.8,353,262.8,352.9 M259.8,353.3c0.1-0.1,0.2-0.2,0.4-0.1c0.1,0.1,0.2,0.2,0.1,0.3c0,0-0.1,0.3,0,0.5c0,0,0,0,0,0   c0.7,0,1.3,0.6,1.3,1.2c0,0.7-0.6,1.3-1.3,1.3c-0.7,0-1.3-0.6-1.3-1.3c0-0.5,0.3-0.9,0.8-1.1C259.6,353.7,259.8,353.3,259.8,353.3    M256.8,353.4c0.1-0.1,0.2-0.2,0.4-0.1c0.1,0.1,0.2,0.2,0.1,0.4c0,0-0.1,0.2,0,0.5c0,0,0,0,0,0c0.7,0,1.3,0.6,1.3,1.2   c0,0.7-0.6,1.3-1.3,1.3c-0.7,0-1.3-0.6-1.3-1.3c0-0.5,0.3-1,0.8-1.1C256.6,353.9,256.8,353.5,256.8,353.4 M239.7,372.9   c0.1-0.6,0.4-1.6,1-2.4c0.5-0.7,0.5-1.1,0.3-1.4c0,0-0.1-0.1-0.1-0.1c0,0,0,0,0,0c-0.1-0.2-0.2-0.4-0.3-0.6c0,0,0-0.1,0-0.1   c0,0,0,0,0,0h0c0-0.1,0-0.1,0-0.1c0-0.3,0.2-0.5,0.4-0.6c1.9-1.1,1.7-2.3,1.4-2.9c-0.3-0.6,0.4-2.6,0.4-2.6   c1.6-4.3,3.5-5.9,4.9-6.4c2.3-0.9,6.2,1.9,6.6,2.1c1.3,0.8,5,3.1,5.9,3.7c0.6,0.4,1.6,1.1,2.2,1.5l0,0c0.2,0.1,0.4,0.2,0.5,0.3v0   c1.8,1.1,3.4,1.9,3.8,1.2c0.4-0.8-2.7-3.2-4.1-4.8c-1.2-1.4-1.3-1.8-1.3-2.4c0-0.6,0.5-1.1,0.5-1.1s0.5,1,1.9,0.7   c1-0.2,1.2-0.9,1.2-0.9s0.7,0.6,1.8,0.3c1.1-0.3,1.2-1.2,1.2-1.2s0.6,0.9,2,0.6c1.3-0.3,1.3-1.3,1.3-1.3s0.6,1,2.1,0.7   c1.3-0.3,1.2-1.5,1.2-1.5s0.7,0.8,2,0.5c1.2-0.3,1.2-1.3,1.2-1.3s0.6,0.8,1.8,0.5c1.2-0.3,1.2-1.4,1.2-1.4s0.8,0.9,2.2,0.4   c0.8-0.3,1-1.2,1-1.2s0.7,0.8,1.9,0.6c0.6-0.2,1.1-0.6,1.4-0.9c0.4,0.6,3.2,4.9,1.8,13.1c-0.5,2.6-1,4.6-1.6,6   c-0.3,0.7-0.8,1.3-2.1,2c-2.1,1.3-6.8,1.1-9,0.9c-0.2,0-0.3,0-0.5,0c-3.7-0.4-2.8-5.1-1.6-6.3c1.2-1.2,2.8-3.5,3.1-4.5   c0.5-1.4,0-1.7-0.4-1.7c-0.4,0-0.5,0.3-0.8,1.2c-0.3,0.9-1.9,3.5-4.5,5.3c-1.2,0.8-1.9,1.6-2.3,2.6c-0.7,1.1-0.5,1.7-0.8,2.5   c-0.2,0.9-1.5,2.6-4.2,2.2c-0.9-0.1-1.6-0.5-2.1-1c-1.8-1.9-0.1-4,0.6-4.7c0.2-0.2,0.2-0.3,0-0.3c-2.5-0.7-3.4,1.2-4,2.2   c-0.2,0.4-0.5,0.7-0.7,0.5c-1.1-0.9,0.2-3.2,0.7-4.1c0.6-0.9,0.5-1.7-1.5-1.1c-1.6,0.5-2.3,0.7-4,0.1c-1.5-0.5-3.2-2.1-2-4.8   c0.2-0.6,0.4-1.1,0.4-1.5c0.1-0.9-0.7-0.9-1.2-0.5c-0.8,0.6-1.3,1.3-1.6,1.8c-0.5,0.7-1.5,2-2.7,1.4c-0.9-0.5-1.6-0.6-1.8-0.1   c-0.2,0.5,0.4,1.2,1.4,2.1c1.6,1.3,1.2,4.1-0.9,3.9c-2.1-0.1-2.9-0.1-3,0.7c0,0.4,0.3,0.6,0.7,0.9c0.4,0.3,1.2,0.6,0.8,3.6   c-0.1,1-0.5,2.8-2,2.2c-0.1,0-0.2-0.1-0.3-0.1c-0.4-0.2-0.4-0.4-0.3-0.7c0.2-1.3,0.7-2.3,0.7-2.4c0.1-0.2,0.2-0.7-0.1-0.9   c-0.4-0.2-0.7,0.3-0.8,0.5c0,0.1-0.4,0.8-0.6,1.9h0c-0.1,0.4-0.4,0-0.4-0.4C239.7,373.1,239.7,373,239.7,372.9"/>
	<path class="st1" d="M320.6,403.9v29.7c0,0,0.7,1.9,5.2,2.1v1.3h-19.2v-1.3c0,0,3.9,0,5.2-2.2V419h-15v14.6c0,0,0.7,1.9,5.2,2.1   v1.3h-19.2v-1.3c0,0,3.9,0,5.2-2.2v-29.7c-1.3-2.1-5.2-2.2-5.2-2.2v-1.3h19.2v1.3c-4.5,0.2-5.2,2.1-5.2,2.1v12.8h15v-12.8   c-1.3-2.1-5.2-2.2-5.2-2.2v-1.3h19.2v1.3C321.3,402,320.6,403.9,320.6,403.9 M289.4,404.1h1.4v29.5h-1.4V404.1z M313.2,404.1h1.4   v29.5h-1.4V404.1z"/>
	<path class="st1" d="M377.5,433.6c0,0,1.2,1.9,5.4,2.1v1.3h-19.5v-1.3c0,0,3.6,0,4.8-2.2v-29.7c-1.2-2.1-4.8-2.2-4.8-2.2v-1.3h17.7   h6.3c0,0,7.8-0.3,10.5,6c0,0,1.1,3.4,0.1,5.9c-1.5,5.3-8.6,7.2-8.6,7.2s3,1.5,8.4,9.9c0,0,4.3,5.7,7.1,6.5l1.2,1.2l-12.9-0.1   c-1.3-0.5-7-8.9-7-8.9c-4.8-7.6-8.5-7-8.8-7V433.6z M377.5,403.3c-0.1,0.3,0,0.6,0,0.6v14.6c0.5,0,9.1,0.5,11.7-6   c0.6-1.9,0.5-3.6,0.5-3.6C388.7,400.9,377.6,403.3,377.5,403.3L377.5,403.3z M392,433.3h1.5c-1.1-1.2-5.1-7.2-5.1-7.2   c-1.4-2.5-4.7-5.1-4.7-5.1l-1.4,0.1c0,0,3.5,2.8,5,5.6C387.3,426.7,390.3,431.4,392,433.3 M388.4,403.4c6.9,6.5-0.1,13.1-0.1,13.1   s4.3-2.2,4.3-6.6C392.6,405.3,388.4,403.4,388.4,403.4 M370.2,404.1h1.3v29.5h-1.3V404.1z"/>
	<path class="st1" d="M341.9,403.6v13.1h7.9c1.1-0.5,2.2-5.4,2.4-6.4h1.5v14.8h-1.6c-0.1-0.8-1.2-6-2.4-6.2h-7.9v12.5   c0.1,0.6,0.5,2.7,2.5,2.8c0,0,7,1.2,13.2-1.1c0,0,1.2-1.2,2.5-6.7l1.5-0.1l-0.4,10.7h-18.2h-2.6h-12.6v-1.3c0,0,3.1,0,4.1-2.2   v-29.7c-1.1-2.1-4.1-2.2-4.1-2.2v-1.3l32.4,0.1l-0.1,10h-1.5c-1.3-5.5-2.7-6.5-2.7-6.5C350.7,401.8,343.1,403.3,341.9,403.6    M334.6,403.9h1.1v29.5h-1.1V403.9z"/>
	<path class="st1" d="M420.4,407.4l-6,15.9h12.7L420.4,407.4z M420.9,404h1.2l12.3,29.3h-1.5L420.9,404z M413.5,425.7l-2.9,7.6   c0,0,0.9,2.2,5.1,2.3v1.5h-13.8v-1.5c0,0,4.3,0,5.4-2.7l11.1-28.8c-1-2.1-5.2-2.1-5.2-2.1v-1.5h13.4l14,32.3c0,0,1.2,2.9,5.5,2.8   v1.5h-19.9l0-1.5c0,0,4.4-0.3,5.2-2.1l-3.3-7.8H413.5z"/>
	<path class="st1" d="M466.3,400.4v1.4c-4.3,0.3-4.5,1.5-5.1,2.2v27.4c0.1,0.6,0.4,2.7,2.2,2.8c0,0,7.2,0.9,12.9-1.1   c0,0,1.5-2.3,2.6-7.8l1.4-0.1l-0.3,11.9h-32.8v-1.5c0,0,4.2-0.1,5-2.2l0.1-29c-0.8-2.1-5.1-2.4-5.1-2.4v-1.4H466.3z M454,404.2h1.2   v29.4H454V404.2z"/>
	<path class="st1" d="M521.1,410.8c-4.7-10.7-17.2-10.4-17.2-10.4h-22.4v1.4c0,0,4.5,0.2,5.2,2.4v29.2c-0.7,2.2-5.2,2.4-5.2,2.4v1.4   h20.1c9-0.2,16.6-4.4,19.7-11C524.6,418.3,521.1,410.8,521.1,410.8 M513.7,411.8c-1.5-6.7-5.3-8.3-5.3-8.3   c4.7,1.1,7.1,7.1,7.4,13.5c0.3,7-2.1,14.5-7.2,16c0,0,5.6-3,5.8-14.4c0-0.1,0.1-1.8,0-3.2C514.1,413.5,513.7,411.8,513.7,411.8    M512.5,418.4c0,0,0.2,6.6-1.9,10.3c-3.2,6.8-11.3,6.1-11.3,6.1c-3.7-0.3-3.8-2.7-3.8-2.7l0-28.8c0,0,2.3-0.6,7-0.5   c0,0,4.3-0.2,7.1,3.3c0,0,2.7,3.4,2.9,8.9L512.5,418.4z M488.1,404h1.4v29.4h-1.4V404z"/>
	<path class="st1" d="M83,410.8c-4.6-10.4-16.6-10-16.6-10H44.8v1.3c0,0,4.3,0.2,5,2.3v28.2c-0.7,2.1-5,2.3-5,2.3v1.3h19.4   c8.7-0.2,16-4.2,19-10.7C86.3,418.2,83,410.8,83,410.8 M75.8,411.8c-1.4-6.5-5.1-8.1-5.1-8.1c4.5,1.1,6.9,6.9,7.1,13   c0.3,6.8-2,14-7,15.5c0,0,5.4-2.9,5.6-14c0-0.1,0.1-1.7,0-3.1C76.2,413.5,75.8,411.8,75.8,411.8 M74.7,418.2c0,0,0.2,6.4-1.9,9.9   c-3.1,6.5-10.9,5.9-10.9,5.9c-3.6-0.3-3.7-2.6-3.7-2.6l0-27.9c0,0,2.2-0.6,6.8-0.5c0,0,4.1-0.1,6.8,3.2c0,0,2.6,3.3,2.8,8.6   L74.7,418.2z M51.1,404.3h1.3v28.5h-1.3V404.3z"/>
	<path class="st1" d="M99.2,403.9v12.7h7.6c1.1-0.4,2.1-5.3,2.3-6.2h1.5v14.4h-1.5c-0.1-0.8-1.2-5.8-2.3-6h-7.6v12.1   c0.1,0.6,0.4,2.6,2.4,2.8c0,0,6.8,1.2,12.8-1.1c0,0,1.2-1.1,2.5-6.5l1.4-0.1l-0.4,10.3h-17.6h-2.5H85.7V435c0,0,3,0,4-2.1v-28.8   c-1-2.1-4-2.1-4-2.1v-1.3l31.3,0.1l-0.1,9.7h-1.4c-1.3-5.4-2.6-6.3-2.6-6.3C107.8,402.1,100.4,403.6,99.2,403.9 M92.2,404.2h1v28.6   h-1V404.2z"/>
	<path class="st1" d="M205.5,407.7l-5.9,15.4h12.3L205.5,407.7z M205.9,404.4h1.1l11.9,28.4h-1.4L205.9,404.4z M198.7,425.4   l-2.8,7.4c0,0,0.8,2.1,5,2.2v1.5h-13.4V435c0,0,4.1,0,5.3-2.7l10.8-27.9c-1-2-5.1-2.1-5.1-2.1V401h13l13.6,31.3   c0,0,1.2,2.8,5.3,2.8v1.5h-19.3l0-1.5c0,0,4.3-0.3,5-2l-3.2-7.5H198.7z"/>
	<path class="st1" d="M130.1,435.2c0,0,6.2,3.2,15.6,1.3c0,0,4.7-0.8,9-5.5l-1.2-1.6c-8.9,7.5-17.6,2.6-17.6,2.6   c-11.9-6.7-8.1-31.6,8.3-29c0,0,4.6,0.4,5.2,2.8l1.6,4.9h1.4v-8.2c0,0-6.8-3.3-17.6-1.5c-8.7,1.7-12.5,9.8-12.5,9.8   s-1.5,2.5-1.9,7.4C120.3,418.3,119.1,429.9,130.1,435.2 M123,420.3c0,0-0.2,9.2,8.2,13.7c-6.2-2.3-8.4-8.6-8.4-8.6   c-1.8-5.8-0.5-10.7-0.5-10.7c2.2-8.7,8.8-11.1,8.8-11.1c-6.8,4.5-7.7,11.3-7.7,11.3S123,416.5,123,420.3"/>
	<path class="st1" d="M164.2,435.2c0,0,6.2,3.2,15.6,1.3c0,0,4.7-0.8,8.9-5.5l-1.2-1.6c-8.9,7.5-17.6,2.6-17.6,2.6   c-11.9-6.7-8.1-31.6,8.3-29c0,0,4.6,0.4,5.2,2.8l1.6,4.9h1.4v-8.2c0,0-6.7-3.3-17.6-1.5c-8.7,1.7-12.5,9.8-12.5,9.8   s-1.5,2.5-1.9,7.4C154.3,418.3,153.1,429.9,164.2,435.2 M157,420.3c0,0-0.2,9.2,8.2,13.7c-6.2-2.3-8.4-8.6-8.4-8.6   c-1.8-5.8-0.5-10.7-0.5-10.7c2.2-8.7,8.8-11.1,8.8-11.1c-6.8,4.5-7.7,11.3-7.7,11.3S157,416.5,157,420.3"/>
	<path class="st1" d="M239.4,408l22,28.5h5.4l0-31.8c1.1-2.1,5.1-2.2,5.1-2.2V401h-13.2l0,1.5c3.9,0,5.1,2.1,5.1,2.1l0,20.6L245,401   h-13.7v1.5c0,0,3.4-0.1,5,2.1l0.1,28.3c-1.1,2.1-5.1,2.2-5.1,2.2v1.5h13.2V435c-3.8,0-5.1-2.1-5.1-2.1L239.4,408z M262.1,432.9   l-21.8-28.3l-1.5,0l21.8,28.3L262.1,432.9z"/>
	<path class="st1" d="M263.2,99.1c-26.1-77.3-94.9-74.8-94.9-74.8H44.8v9.9c0,0,24.7,1.5,28.5,17.2v210.4   c-3.8,15.8-28.5,17.2-28.5,17.2v9.9h110.9c50-1.3,91.5-31.5,108.7-79.4C282.2,153.7,263.2,99.1,263.2,99.1 M222.3,106.6   c-8.2-48.6-29.3-60-29.3-60c25.9,8.2,39.4,51.6,40.9,97.3c1.6,50.8-11.8,104.5-39.8,115.8c0,0,30.8-21.7,31.8-104.2   c0.2-0.8,0.5-13.1-0.3-23.2C224.6,118.8,222.3,106.6,222.3,106.6 M215.9,153.8c0,0,1,47.9-10.7,74.1   c-17.5,48.8-62.5,43.9-62.5,43.9c-20.7-2.1-21-19.2-21-19.2l-0.1-208c0,0,12.5-4.5,38.8-3.6c0,0,23.6-1.1,39,24.1   c0,0,14.9,24.4,15.9,64.1L215.9,153.8z M81.1,50.4h7.7v212.4h-7.7V50.4z"/>
	<path class="st1" d="M490.5,49v215.2c0,0,4.4,13.8,32.2,15.5v9.5H404.5v-9.5c0,0,23.8-0.2,32-15.6V158.7h-92.2v105.6   c0,0,4.4,13.8,32.2,15.5v9.5H258.3v-9.5c0,0,23.8-0.2,32-15.6V49.2c-8.2-15.4-32-15.6-32-15.6v-9.5h118.2v9.5   c-27.8,1.7-32.2,15.5-32.2,15.5v92.4h92.2V49.1c-8.2-15.4-32-15.6-32-15.6V24h118.2v9.4C494.9,35.2,490.5,49,490.5,49 M298.8,50.4   h8.5v213.6h-8.5V50.4z M445.3,50.3h8.5v213.6h-8.5V50.3z"/>
</g>
</svg>